<svg viewBox="0 0 96 96" xmlns="http://www.w3.org/2000/svg" xmlns:xlink="http://www.w3.org/1999/xlink" id="Icons_Clarinet" overflow="hidden"><path d="M87.78 5 70 22 76.39 28.39 88.15 16C88.5641 15.5142 88.7942 14.8983 88.8 14.26L89.7 6C89.7718 5.36339 89.314 4.78909 88.6773 4.71727 88.3517 4.68054 88.0257 4.78324 87.78 5Z"/><path d="M67.09 24.8 58.73 32.8 57 31.09 58.41 29.68C59.0161 29.1152 59.0496 28.1661 58.4848 27.56 57.9201 26.9539 56.9709 26.9204 56.3648 27.4852 56.339 27.5092 56.3141 27.5342 56.29 27.56L30.85 53C30.2591 53.5937 30.2613 54.5541 30.855 55.145 31.4487 55.7359 32.4091 55.7337 33 55.14L35.09 53 36.33 54.24 28 62.2 36.3 70.51 73.61 31.32ZM54.89 33.22 56.56 34.88 48.56 42.49 47.11 41ZM37.21 50.89 45 43.11 46.45 44.57 38.5 52.17ZM43.49 59.29C42.3205 60.4636 40.421 60.4669 39.2474 59.2974 39.2449 59.2949 39.2425 59.2925 39.24 59.29 38.4908 58.5304 38.2014 57.4299 38.48 56.4L39.4 57.33C39.8481 57.7801 40.5762 57.7818 41.0263 57.3337 41.0276 57.3324 41.0288 57.3312 41.03 57.33L41.52 56.83C41.9674 56.387 41.9709 55.6652 41.5278 55.2178 41.5252 55.2152 41.5226 55.2126 41.52 55.21L40.6 54.28C42.2056 53.871 43.8387 54.841 44.2477 56.4466 44.5055 57.4586 44.2185 58.5318 43.49 59.28ZM53.39 49.39C52.2205 50.5636 50.321 50.5669 49.1474 49.3974 49.1449 49.3949 49.1425 49.3925 49.14 49.39 48.3908 48.6304 48.1014 47.5299 48.38 46.5L49.3 47.43C49.7481 47.8801 50.4762 47.8818 50.9263 47.4337 50.9276 47.4324 50.9288 47.4312 50.93 47.43L51.42 46.93C51.8673 46.487 51.8708 45.7652 51.4278 45.3178 51.4252 45.3152 51.4226 45.3126 51.42 45.31L50.5 44.38C52.1056 43.971 53.7387 44.941 54.1477 46.5466 54.4055 47.5586 54.1185 48.6318 53.39 49.38ZM63.28 39.49C62.0929 40.6459 60.1936 40.6205 59.0377 39.4334 58.3092 38.6852 58.0222 37.612 58.28 36.6L59.2 37.53C59.6481 37.9801 60.3762 37.9818 60.8263 37.5337 60.8276 37.5324 60.8288 37.5312 60.83 37.53L61.32 37.03C61.7673 36.587 61.7709 35.8652 61.3278 35.4178 61.3252 35.4152 61.3226 35.4126 61.32 35.41L60.4 34.48C62.0074 34.0783 63.6361 35.0557 64.0378 36.6632 64.2894 37.67 64.0028 38.7353 63.28 39.48Z"/><path d="M29 89.29C23.35 83.63 34 73 34 73L25.51 64.51C25.51 64.51 14.87 75.15 9.21 69.49 8.42852 68.7085 7.16148 68.7085 6.38 69.49 5.59852 70.2715 5.59852 71.5385 6.38 72.32L26.18 92.12C26.9231 92.9372 28.188 92.9972 29.0052 92.2541 29.8224 91.511 29.8825 90.2461 29.1394 89.4289 29.0952 89.3803 29.0487 89.334 29 89.29Z"/></svg>