<svg viewBox="0 0 96 96" xmlns="http://www.w3.org/2000/svg" xmlns:xlink="http://www.w3.org/1999/xlink" id="Icons_Clarinet_M" overflow="hidden"><g id="Icons"><path d="M26.387 92.345C27.1301 93.1624 28.3951 93.2226 29.2125 92.4795 30.0299 91.7364 30.0901 90.4714 29.347 89.654 29.302 89.605 29.256 89.559 29.207 89.515 23.557 83.853 34.207 73.215 34.207 73.215L88.36 16.2C88.7739 15.7141 89.004 15.0983 89.01 14.46L89.91 6.197C89.9819 5.5604 89.5242 4.98601 88.8876 4.91407 88.8874 4.91405 88.8872 4.91402 88.887 4.914 88.8442 4.90918 88.8011 4.90684 88.758 4.907 88.4752 4.90673 88.202 5.00987 87.99 5.197L59.854 32.1 57.591 29.836 60.419 27C60.8162 26.6163 60.8273 25.9833 60.4436 25.586 60.0599 25.1887 59.4268 25.1777 59.0296 25.5614 59.0212 25.5695 59.013 25.5777 59.005 25.586L32.135 52.46C31.7377 52.8437 31.7267 53.4767 32.1104 53.874 32.4941 54.2713 33.1272 54.2823 33.5244 53.8986 33.5328 53.8905 33.541 53.8823 33.549 53.874L36.573 50.851 38.362 52.64 25.717 64.728C25.717 64.728 19.078 71.368 13.499 71.368 11.9675 71.4013 10.4902 70.801 9.416 69.709 8.63424 68.9275 7.36698 68.9277 6.5855 69.7095 5.80402 70.4913 5.80424 71.7585 6.586 72.54ZM87.653 8.29C87.6569 8.28611 87.6633 8.28614 87.6671 8.29006 87.6692 8.29216 87.6703 8.29506 87.67 8.298L87.022 14.247 87.011 14.347 87.011 14.447C87.0098 14.6034 86.9575 14.7551 86.862 14.879L75.652 26.68 72.115 23.143ZM56.177 31.246 58.408 33.478 49.931 41.578 47.886 39.533ZM37.987 49.437 46.472 40.951 48.485 42.964 39.808 51.258ZM39.777 54.055 40.826 55.1C40.4539 56.4262 41.2274 57.8029 42.5536 58.1749 43.4222 58.4186 44.3546 58.1743 44.992 57.536L44.992 57.536C45.9651 56.5619 45.9643 54.9835 44.9903 54.0104 44.2275 53.2484 43.0614 53.063 42.1 53.551L41.222 52.673 49.899 44.373 50.726 45.201C50.3551 46.527 51.1294 47.9025 52.4554 48.2734 53.3231 48.5161 54.2543 48.2716 54.891 47.634L54.891 47.634C55.8613 46.6572 55.856 45.0787 54.8792 44.1084 54.1179 43.3522 52.9581 43.1679 52 43.651L51.346 43 59.823 34.9 60.431 35.508C60.0617 36.8344 60.8375 38.209 62.1639 38.5784 63.0325 38.8203 63.9641 38.5742 64.6 37.935L64.6 37.935C65.5765 36.9643 65.5812 35.3859 64.6105 34.4094 63.8464 33.6407 62.6731 33.4538 61.708 33.947L61.272 33.511 70.672 24.525 74.277 28.131 35.7 68.749 30.178 63.23ZM13.5 73.368C19.728 73.368 26.393 66.882 27.1 66.174L28.733 64.613 34.318 70.2 32.775 71.825C28.661 75.94 23.205 83.905 26.655 89.499 26.9267 89.9213 27.2363 90.3179 27.58 90.684 27.587 90.692 27.572 90.703 27.564 90.695L8.1 71.218C8.09503 71.2152 8.09324 71.209 8.096 71.204 8.09876 71.199 8.10503 71.1972 8.11 71.2 8.51498 71.586 8.95224 71.9366 9.417 72.248 10.6444 73.0005 12.0604 73.389 13.5 73.368Z"/></g></svg>