<svg viewBox="0 0 96 96" xmlns="http://www.w3.org/2000/svg" xmlns:xlink="http://www.w3.org/1999/xlink" id="Icons_Drum_M" overflow="hidden"><g id="Icons"><path d="M61.15 23.525C63.8124 24.0742 66.4279 24.8298 68.973 25.785L70.553 24.205C67.7623 23.0832 64.8777 22.2108 61.933 21.598Z"/><path d="M10 36 10 70C10 78.972 25.813 86 46 86 66.187 86 82 78.972 82 70L82 36C82 32.692 79.844 29.649 76.118 27.125L74.655 28.587C78.023 30.753 80 33.3 80 36 80 43.589 64.43 50 46 50 27.57 50 12 43.589 12 36 12 28.411 27.57 22 46 22 49.0335 21.9994 52.0644 22.1774 55.077 22.533L55.866 20.59C52.5923 20.1939 49.2976 19.9968 46 20 25.813 20 10 27.028 10 36ZM12 47.354C13.9132 49.6241 16.3032 51.4447 19 52.686L19 72.386C14.629 70.03 12 67.113 12 63.997ZM80 70C80 77.589 64.43 84 46 84 27.57 84 12 77.589 12 70L12 69.354C16.853 75.616 30.059 80 46 80 61.941 80 75.147 75.616 80 69.354ZM21 73.376 21 53.606C24.2232 54.9385 27.5739 55.939 31 56.592L31 76.507C27.5644 75.8235 24.2119 74.7739 21 73.376ZM33 76.894 33 56.958C36.9677 57.6084 40.9795 57.953 45 57.989L45 77.989C40.9771 77.9466 36.9641 77.5804 33 76.894ZM47 77.989 47 57.989C51.0205 57.953 55.0323 57.6084 59 56.958L59 76.894C55.0359 77.5804 51.0229 77.9466 47 77.989ZM61 76.507 61 56.592C64.4261 55.939 67.7768 54.9385 71 53.606L71 73.376C67.7881 74.7738 64.4356 75.8235 61 76.507ZM80 64C80 67.116 77.371 70.033 73 72.389L73 52.689C75.6968 51.4477 78.0868 49.6271 80 47.357ZM46 52C61.941 52 75.147 47.616 80 41.354L80 42C80 49.589 64.43 56 46 56 27.57 56 12 49.589 12 42L12 41.354C16.853 47.616 30.059 52 46 52Z"/><path d="M63.376 10.074C62.8651 9.86801 62.2839 10.1139 62.076 10.624L49.076 42.624C48.87 43.1349 49.1159 43.7161 49.626 43.924 49.7445 43.9736 49.8716 43.9994 50 44 50.4069 43.9997 50.773 43.753 50.926 43.376L63.926 11.376C64.1333 10.8646 63.8872 10.2819 63.376 10.074Z"/><path d="M57 43C57.2652 42.9999 57.5195 42.8946 57.707 42.707L85.707 14.707C86.0907 14.3097 86.0797 13.6767 85.6824 13.293 85.2949 12.9187 84.6805 12.9187 84.293 13.293L56.293 41.293C55.9025 41.6836 55.9026 42.3167 56.2932 42.7072 56.4807 42.8946 56.7349 42.9999 57 43Z"/></g></svg>