<svg viewBox="0 0 96 96" xmlns="http://www.w3.org/2000/svg" xmlns:xlink="http://www.w3.org/1999/xlink" id="Icons_PianoKeys_M" overflow="hidden"><g id="Icons"><path d="M71 13 14 13C13.4477 13 13 13.4477 13 14L13 82C13 82.5523 13.4477 83 14 83L82 83C82.5523 83 83 82.5523 83 82L83 14C83 13.4477 82.5523 13 82 13ZM61 15 69 15 69 57 61 57ZM44 15 52 15 52 57 44 57ZM27 15 35 15 35 57 27 57ZM30 81 15 81 15 15 25 15 25 57C25 58.1046 25.8954 59 27 59L30 59ZM47 81 32 81 32 59 35 59C36.1046 59 37 58.1046 37 57L37 15 42 15 42 57C42 58.1046 42.8954 59 44 59L47 59ZM64 81 49 81 49 59 52 59C53.1046 59 54 58.1046 54 57L54 15 59 15 59 57C59 58.1046 59.8954 59 61 59L64 59ZM81 81 66 81 66 59 69 59C70.1046 59 71 58.1046 71 57L71 15 81 15Z"/></g></svg>