<svg viewBox="0 0 96 96" xmlns="http://www.w3.org/2000/svg" xmlns:xlink="http://www.w3.org/1999/xlink" id="Icons_Saxophone_M" overflow="hidden"><g id="Icons"><path d="M32.7 71.02C32.5797 71.8482 32.5129 72.6832 32.5 73.52 32.5091 82.6415 39.911 90.0286 49.0326 90.0194 54.9854 90.0135 60.4745 86.8045 63.4 81.62 66.18 75.073 64.6 65.189 69.355 61.769L70.833 63.247C71.2237 63.6375 71.857 63.6372 72.2475 63.2465 72.638 62.8558 72.6377 62.2225 72.247 61.832L55.077 44.663C54.6797 44.2793 54.0467 44.2903 53.663 44.6876 53.2887 45.0751 53.2887 45.6895 53.663 46.077L54.982 47.4C46.577 57.288 50.026 66 50.5 71.62L50.5 73.02C50.5 74.6768 49.1569 76.02 47.5 76.02 45.8431 76.02 44.5 74.6768 44.5 73.02L44.5 14C44.66 6.958 40.66 6 38.132 6 37.6198 6.00405 37.1083 6.03744 36.6 6.1 32.7 6.3 28.3 9.4 27.6 13L21.5 13C20.979 12.9687 20.5313 13.3656 20.5 13.8866 20.4977 13.9244 20.4977 13.9622 20.5 14 21.8 15.8 23.1 17 25.5 17 27.9 17 29.8 16.4 30.5 14 31.208 11.265 33.137 10.086 34.927 10.086 36.8264 9.99603 38.4391 11.4629 38.529 13.3622 38.5391 13.5753 38.5294 13.7888 38.5 14ZM39.179 9.93C38.3462 9.01516 37.2334 8.40249 36.015 8.188 36.01 8.188 36.006 8.18397 36.006 8.179 36.006 8.17403 36.01 8.17 36.015 8.17 36.7169 8.06719 37.4247 8.0104 38.134 8L38.134 8C39.2569 7.91066 40.3667 8.29001 41.2 9.048 42.1 9.972 42.553 11.67 42.5 14.004L42.5 72.947C42.4861 75.7324 44.7306 78.0028 47.516 78.021 50.2481 78.0416 52.4796 75.8435 52.5001 73.1114 52.5004 73.0813 52.5003 73.0511 52.5 73.021L52.5 71.535 52.493 71.451C52.406 70.415 52.23 69.318 52.043 68.157 51.187 62.82 50.135 56.257 56.39 48.815L67.9 60.321C64.579 62.938 63.927 67.968 63.339 72.507 63.1036 75.3132 62.5194 78.0792 61.6 80.741 57.6038 87.691 48.7301 90.0854 41.7802 86.0892 37.2813 83.5023 34.5057 78.7106 34.5 73.521 34.5145 72.7511 34.5776 71.9829 34.689 71.221L40.489 14.221C40.6895 12.6688 40.2123 11.1055 39.179 9.93Z"/><circle cx="40.502" cy="61.017" r="1.75"/><circle cx="40.502" cy="53.015" r="1.75"/><circle cx="40.502" cy="45.013" r="1.75"/><circle cx="40.502" cy="37.01" r="1.75"/></g></svg>