<svg viewBox="0 0 96 96" xmlns="http://www.w3.org/2000/svg" xmlns:xlink="http://www.w3.org/1999/xlink" id="Icons_Violin" overflow="hidden"><g><path d="M86.7 52.8C86.3 52.4 85.7 52.4 85.3 52.8L84.6 53.5 82.5 51.4C82.5 51.4 82.5 51.4 82.5 51.4 82.5 51.4 82.5 51.4 82.5 51.4 82 51 81.4 51 81 51.5 80.9 51.6 74.6 59.3 66.2 67.7 57.8 76.1 50.1 82.4 50 82.4 49.6 82.8 49.5 83.4 49.9 83.8 49.9 83.8 49.9 83.8 49.9 83.8 49.9 83.8 49.9 83.8 49.9 83.9L52 86 51.2 86.8C50.8 87.2 50.8 87.8 51.2 88.2 51.4 88.4 51.7 88.5 51.9 88.5 52.1 88.5 52.4 88.4 52.6 88.2L86.6 54.2C87.1 53.8 87.1 53.2 86.7 52.8ZM52.1 83.3C54.3 81.4 60.8 75.9 67.6 69.1 74.4 62.3 79.9 55.9 81.8 53.6L83.1 54.9 53.5 84.6 52.1 83.3Z"/><g><path d="M25.9 63.9 12.4 80.2 15.3 83 31.5 69.6Z"/><rect x="32.5" y="49.9" width="3" height="16" transform="matrix(-0.7071 -0.7071 0.7071 -0.7071 17.0617 122.945)"/><path d="M25.9 61.1 37.2 49.8 56.8 31.7C46.3 24 39.9 31.8 34.9 39 36 39.2 36.9 39.8 37.4 40.6 38.9 43.1 36.7 47.2 32.4 49.8 28.4 52.3 23.9 52.5 22.2 50.4 13.2 54.4 1.2 59.7 12.7 76.7L25.9 61.1Z"/><rect x="36" y="53.5" width="3" height="16" transform="matrix(0.7071 0.7071 -0.7071 0.7071 54.4608 -8.5313)"/><path d="M45.7 58.3 34.3 69.6 18.7 82.8C35.7 94.3 41 82.3 45 73.3 42.9 71.6 43.1 67.1 45.6 63.1 48.2 58.8 52.3 56.6 54.8 58.1 55.6 58.6 56.2 59.5 56.4 60.6 63.6 55.6 71.3 49.2 63.7 38.7L45.7 58.3Z"/><path d="M87.7 14.8 85.6 12.7 86.2 12C86.2 12 86.2 12 86.2 12L86.3 11.9 86.3 11.9C86.6 11.5 86.8 11.1 86.8 10.6 86.8 9.5 85.9 8.6 84.8 8.6 84.2 8.6 83.6 8.9 83.3 9.3L83.3 9.3 82.8 9.8 80.8 7.8C80.4 7.4 79.8 7.4 79.4 7.8 79 8.2 79 8.8 79.4 9.2L81.4 11.2 79.8 12.7 77.9 10.8C77.5 10.4 76.9 10.4 76.5 10.8 76.1 11.2 76.1 11.8 76.5 12.2L78.4 14.1 40 49.8 45.7 55.5 81.4 17.3 83.3 19.2C83.5 19.4 83.8 19.5 84 19.5 84.2 19.5 84.5 19.4 84.7 19.2 85.1 18.8 85.1 18.2 84.7 17.8L82.7 15.8 84.2 14.2 86.2 16.2C86.4 16.4 86.7 16.5 86.9 16.5 87.1 16.5 87.4 16.4 87.6 16.2 88.1 15.8 88.1 15.2 87.7 14.8Z"/></g></g></svg>