<svg viewBox="0 0 96 96" xmlns="http://www.w3.org/2000/svg" xmlns:xlink="http://www.w3.org/1999/xlink" id="Icons_Violin_M" overflow="hidden"><g id="Icons"><path d="M44.459 73.049 44.713 72.478 44.313 72C42.653 70.017 43.094 65.812 45.347 62.207 47.918 57.956 52.047 55.72 54.527 57.207 54.7358 57.3361 54.9287 57.4891 55.102 57.663 55.3706 57.9332 55.595 58.244 55.767 58.584L56.293 59.62 57.238 58.946C61.374 56 65.708 52.351 66.498 47.625 67.012 44.548 66.029 41.361 63.473 37.854L63.056 37.321 79.9 19.315 81.788 21.2C82.1623 21.6061 82.7949 21.6319 83.201 21.2576 83.6071 20.8833 83.6329 20.2506 83.2586 19.8445 83.2399 19.8242 83.2203 19.8047 83.2 19.786L81.27 17.854 82.637 16.392 84.617 18.372C85.0007 18.7693 85.6337 18.7803 86.031 18.3966 86.4283 18.0129 86.4393 17.3798 86.0556 16.9826 86.0475 16.9742 86.0393 16.966 86.031 16.958L84 14.931 87.418 11.277 83.218 7.077 79.572 10.5 77.545 8.472C77.1613 8.07475 76.5283 8.06374 76.131 8.44742 75.7337 8.8311 75.7227 9.46417 76.1064 9.86142 76.1145 9.86976 76.1227 9.87795 76.131 9.886L78.111 11.866 76.649 13.233 74.717 11.3C74.3263 10.9087 73.6923 10.9083 73.301 11.299 72.9097 11.6897 72.9093 12.3237 73.3 12.715L75.188 14.6 57.175 31.451 56.644 31.035C53.164 28.5 49.979 27.517 46.9 28.035 42.174 28.826 38.525 33.159 35.579 37.294L34.905 38.24 35.94 38.766C36.2806 38.9375 36.5917 39.162 36.862 39.431 37.0319 39.5999 37.1819 39.7878 37.309 39.991 38.809 42.491 36.571 46.615 32.309 49.191 28.716 51.437 24.509 51.878 22.529 50.218L22.05 49.818 21.48 50.072C16.61 52.242 9.94 55.213 8.28 61.011 7.125 65.043 8.564 70.094 12.592 76.072L13.151 76.802 11.145 79.25 15.252 83.358 17.701 81.358 18.509 81.975C23.115 85.075 27.191 86.638 30.671 86.638 31.634 86.6428 32.593 86.5129 33.52 86.252 39.317 84.588 42.289 77.918 44.459 73.049ZM83.179 9.863 84.64 11.324 76.44 20.092 74.414 18.066ZM72.95 19.433 75.07 21.553 44.986 53.711 40.8 49.51ZM42.184 53.733 43.6 55.149 30.88 67.869 29.466 66.455ZM28.048 65.041 26.634 63.626 39.361 50.9 40.772 52.316ZM10.2 61.559C11.459 57.164 16.148 54.659 21.763 52.133 24.529 53.923 29.269 53.446 33.354 50.893 38.632 47.701 41.122 42.458 39.013 38.942 38.8029 38.6052 38.5549 38.2935 38.274 38.013 38.1299 37.8684 37.9777 37.7322 37.818 37.605 40.408 34.079 43.518 30.624 47.227 30.005 49.748 29.585 52.441 30.451 55.436 32.632L55.695 32.832 37.925 49.459 37.949 49.483 25.22 62.212 25.146 62.138 14.451 75.209 14.215 74.902C10.567 69.486 9.217 65 10.2 61.559ZM15.385 80.664 13.837 79.116 25.292 65.116 29.386 69.21ZM19.673 80.349 19.289 80.049 32.363 69.349 32.289 69.275 45.008 56.566 45.032 56.59 61.673 38.8 61.873 39.061C64.073 42.083 64.942 44.777 64.521 47.296 63.901 51.004 60.446 54.116 56.921 56.706 56.7939 56.5469 56.658 56.395 56.514 56.251 56.2294 55.9652 55.9122 55.7138 55.569 55.502 52.069 53.402 46.825 55.892 43.641 61.157 41.081 65.257 40.603 69.994 42.394 72.757 39.87 78.372 37.362 83.057 32.967 84.32 29.53 85.311 25.042 83.961 19.675 80.349Z"/><path d="M86.711 52.29C86.3425 51.9034 85.7304 51.8887 85.3438 52.2572 85.3326 52.2678 85.3217 52.2788 85.311 52.29L84.611 52.99 82.511 50.89C82.1199 50.5 81.4868 50.5009 81.0968 50.892 81.0661 50.9227 81.0374 50.9555 81.011 50.99 80.911 51.09 74.611 58.79 66.211 67.19 61.0732 72.3715 55.6657 77.2783 50.011 81.89 49.5979 82.2337 49.5416 82.8472 49.8852 83.2603 49.8936 83.2704 49.9022 83.2803 49.911 83.29L49.911 83.39 52.011 85.49 51.211 86.29C50.8244 86.6585 50.8097 87.2706 51.1782 87.6572 51.1888 87.6684 51.1998 87.6793 51.211 87.69 51.5795 88.0766 52.1915 88.0913 52.5781 87.7229 52.5894 87.7122 52.6003 87.7012 52.611 87.69L86.611 53.68C87.0174 53.3938 87.1149 52.8324 86.8287 52.426 86.7941 52.3768 86.7547 52.3313 86.711 52.29ZM53.51 84.1 52.11 82.8C54.31 80.9 60.81 75.4 67.61 68.6 74.41 61.8 79.91 55.4 81.81 53.1L83.11 54.4Z"/></g></svg>