<svg viewBox="0 0 96 96" xmlns="http://www.w3.org/2000/svg" xmlns:xlink="http://www.w3.org/1999/xlink" id="Icons_PianoKeys" overflow="hidden"><path d="M82 12 14 12C12.8954 12 12 12.8954 12 14L12 82C12 83.1046 12.8954 84 14 84L82 84C83.1046 84 84 83.1046 84 82L84 14C84 12.8954 83.1046 12 82 12ZM60.83 57 63 57 63 79.78C62.9951 79.8532 62.9951 79.9268 63 80L50 80 50 57 52.17 57C53.17 57 54 55.9 54 54.53L54 16 59 16 59 54.52C59 55.89 59.82 57 60.83 57ZM35.17 57C36.17 57 37 55.9 37 54.53L37 16 42 16 42 54.52C42 55.89 42.82 56.99 43.83 56.99L46 56.99 46 80 33 80 33 57ZM16 16 25 16 25 54.52C25 55.89 25.82 56.99 26.83 56.99L29 56.99 29 80 16 80ZM80 80 67 80C67.0049 79.9268 67.0049 79.8532 67 79.78L67 57 69.17 57C70.17 57 71 55.9 71 54.53L71 16 80 16Z"/></svg>