<svg viewBox="0 0 96 96" xmlns="http://www.w3.org/2000/svg" xmlns:xlink="http://www.w3.org/1999/xlink" id="Icons_Drum" overflow="hidden"><g><path d="M50.2 44.6C49.9 44.6 49.7 44.6 49.4 44.4 48.4 44 47.9 42.8 48.3 41.8L61.3 10.2C61.7 9.2 62.9 8.7 63.9 9.1 64.9 9.5 65.4 10.7 65 11.7L52 43.3C51.8 44.2 51 44.6 50.2 44.6Z"/><path d="M57 44C56.5 44 56 43.8 55.6 43.4 54.8 42.6 54.8 41.4 55.6 40.6L83.6 12.6C84.4 11.8 85.6 11.8 86.4 12.6 87.2 13.4 87.2 14.6 86.4 15.4L58.4 43.4C58 43.8 57.5 44 57 44Z"/><path d="M70.2 23.1C68.2 22.3 65.9 21.6 63.5 21L61.2 26.7C62.7 27 64.1 27.4 65.5 27.9L70.2 23.1Z"/><path d="M77.4 27.2 73.2 31.4C75.6 33 77 34.9 77 36.9 77 43.8 60.6 48.9 46 48.9 31.4 48.9 15 43.8 15 36.9 15 30 31.4 24.9 46 24.9 48.3 24.9 50.7 25 53 25.3L55.4 19.5C52.4 19.1 49.3 18.9 46 18.9 24.9 19 9 26.7 9 37L9 69C9 79.3 24.9 87 46 87 67.1 87 83 79.3 83 69L83 37C83 33.3 81 30 77.4 27.2ZM18 73.9C16.1 72.4 14 70.7 14 69L14 46.3C15.2 47.3 16.5 48.2 18 49L18 73.9ZM32 79.5C30.6 79.2 29.3 78.9 28 78.5L28 52.8C29.3 53.1 30.6 53.4 32 53.7L32 79.5ZM48 80.9C47.3 80.9 46.7 80.9 46 80.9 45.3 80.9 44.7 80.9 44 80.9L44 54.9C44.7 54.9 45.3 54.9 46 54.9 46.7 54.9 47.3 54.9 48 54.9L48 80.9ZM64 78.5C62.7 78.9 61.4 79.2 60 79.5L60 53.7C61.4 53.4 62.7 53.1 64 52.8L64 78.5ZM78 69C78 70.8 75.9 72.4 74 73.9L74 49C75.5 48.2 76.8 47.3 78 46.3L78 69Z"/></g></svg>