<svg width="177" height="117" xmlns="http://www.w3.org/2000/svg" xmlns:xlink="http://www.w3.org/1999/xlink" overflow="hidden"><defs><clipPath id="clip0"><rect x="112" y="302" width="177" height="117"/></clipPath><clipPath id="clip1"><rect x="192" y="303" width="96" height="96"/></clipPath><clipPath id="clip2"><rect x="192" y="303" width="96" height="96"/></clipPath><clipPath id="clip3"><rect x="192" y="303" width="96" height="96"/></clipPath></defs><g clip-path="url(#clip0)" transform="translate(-112 -302)"><path d="M113.5 362.5C113.5 332.124 138.796 307.5 170 307.5 201.204 307.5 226.5 332.124 226.5 362.5 226.5 392.876 201.204 417.5 170 417.5 138.796 417.5 113.5 392.876 113.5 362.5Z" stroke="#000000" stroke-width="2.66667" stroke-miterlimit="8" fill="none" fill-rule="evenodd"/><path d="M160.344 382.903C157.472 371.325 163.488 359.869 173.78 357.316 184.072 354.764 194.743 362.081 197.615 373.659 200.486 385.238 194.471 396.693 184.179 399.246 173.887 401.799 163.215 394.482 160.344 382.903Z" stroke="#2F528F" stroke-width="1.33333" stroke-miterlimit="8" fill-rule="evenodd"/><path d="M144.5 339.5C144.5 335.634 147.634 332.5 151.5 332.5 155.366 332.5 158.5 335.634 158.5 339.5 158.5 343.366 155.366 346.5 151.5 346.5 147.634 346.5 144.5 343.366 144.5 339.5Z" stroke="#000000" stroke-width="1.33333" stroke-miterlimit="8" fill-rule="evenodd"/><path d="M179.5 332C179.5 327.858 182.858 324.5 187 324.5 191.142 324.5 194.5 327.858 194.5 332 194.5 336.142 191.142 339.5 187 339.5 182.858 339.5 179.5 336.142 179.5 332Z" stroke="#000000" stroke-width="1.33333" stroke-miterlimit="8" fill-rule="evenodd"/><g clip-path="url(#clip1)"><g clip-path="url(#clip2)"><g clip-path="url(#clip3)"><path d="M271.93 337.68 235.93 346.21 235.93 376C233.922 375.6 231.842 375.777 229.93 376.51 225.59 378.09 222.93 381.71 223.93 384.6 224.93 387.49 229.34 388.6 233.68 386.99 237.6 385.57 239.84 381.99 239.84 379.77L239.84 350.92 267.84 344.31 267.84 369.41C265.789 368.997 263.662 369.177 261.71 369.93 257.27 371.56 254.53 375.29 255.61 378.28 256.69 381.27 261.16 382.37 265.61 380.75 269.37 379.4 271.87 376.61 272 374Z"/><path d="M225.58 320.4C224.7 319.825 223.964 319.056 223.43 318.15L223.43 316.31C223.43 315.205 222.535 314.31 221.43 314.31 220.325 314.31 219.43 315.205 219.43 316.31L219.43 346.5C217.496 346.159 215.505 346.349 213.67 347.05 209.33 348.62 206.67 352.24 207.67 355.14 208.67 358.04 213.09 359.14 217.43 357.53 220.43 356.43 222.65 354.34 223.36 352.19L223.36 331.1C223.63 331.312 223.914 331.505 224.21 331.68 230.88 335.68 227.21 342 230.47 342.03 234.66 342.06 234.83 326.57 225.58 320.4Z"/></g></g></g></g></svg>