<svg viewBox="0 0 96 96" xmlns="http://www.w3.org/2000/svg" xmlns:xlink="http://www.w3.org/1999/xlink" id="Icons_Saxophone" overflow="hidden"><path d="M74.9 61.6 55.9 42.6C55.1 41.8 53.9 41.8 53.1 42.6 52.3 43.4 52.3 44.6 53.1 45.4L55.1 47.4C45 57.9 50 65.7 50.5 71.6L50.5 73C50.5 74.7 49.2 76 47.5 76 45.8 76 44.5 74.7 44.5 73L44.5 14C44.7 5.2 38.4 5.9 36.6 6.1 32.7 6.3 28.3 9.4 27.6 13L21.5 13C20.9 13 20.5 13.4 20.5 14 21.8 15.8 23.1 17 25.5 17 27.9 17 29.8 16.4 30.5 14 32 8.2 39 9.4 38.5 14L32.7 71C32.6 71.8 32.5 72.6 32.5 73.5 32.5 82.6 39.9 90 49 90 55.2 90 60.6 86.6 63.4 81.6 66.5 74.3 62.9 64.4 70 62.4L72.1 64.5C72.5 64.9 73 65.1 73.5 65.1 74 65.1 74.5 64.9 74.9 64.5 75.7 63.6 75.7 62.4 74.9 61.6ZM40.5 63C39.4 63 38.5 62.1 38.5 61 38.5 59.9 39.4 59 40.5 59 41.6 59 42.5 59.9 42.5 61 42.5 62.1 41.6 63 40.5 63ZM40.5 55C39.4 55 38.5 54.1 38.5 53 38.5 51.9 39.4 51 40.5 51 41.6 51 42.5 51.9 42.5 53 42.5 54.1 41.6 55 40.5 55ZM40.5 47C39.4 47 38.5 46.1 38.5 45 38.5 43.9 39.4 43 40.5 43 41.6 43 42.5 43.9 42.5 45 42.5 46.1 41.6 47 40.5 47ZM40.5 39C39.4 39 38.5 38.1 38.5 37 38.5 35.9 39.4 35 40.5 35 41.6 35 42.5 35.9 42.5 37 42.5 38.1 41.6 39 40.5 39Z"/></svg>